<svg xmlns="http://www.w3.org/2000/svg" height="24px" viewBox="0 0 24 24" width="24px" fill="#fff">
  <path d="M0 0h24v24H0z" fill="none"/>
  <path d="M19 2H5c-1.1 0-2 .9-2 2v2h18V4c0-1.1-.9-2-2-2zm-1 6H6v12h12V8zm-6 2.5c.83 0 1.5.67 1.5 1.5S13.83 13 13 13s-1.5-.67-1.5-1.5.67-1.5 1.5-1.5zm0 1.5c.28 0 .5.22.5.5s-.22.5-.5.5-.5-.22-.5-.5.22-.5.5-.5zm-4 0c.28 0 .5.22.5.5s-.22.5-.5.5-.5-.22-.5-.5.22-.5.5-.5zm8 0c.28 0 .5.22.5.5s-.22.5-.5.5-.5-.22-.5-.5.22-.5.5-.5zm0-1.5c-.83 0-1.5.67-1.5 1.5S13.83 13 13 13s-1.5-.67-1.5-1.5.67-1.5 1.5-1.5zm0-1.5c-.28 0-.5-.22-.5-.5s.22-.5.5-.5.5.22.5.5-.22.5-.5.5zm-4 0c-.28 0-.5-.22-.5-.5s.22-.5.5-.5.5.22.5.5-.22.5-.5.5zm-4 0c-.28 0-.5-.22-.5-.5s.22-.5.5-.5.5.22.5.5-.22.5-.5.5zM5 8h2v12H5V8zm13-2h2c1.1 0 2 .9 2 2v14c0 1.1-.9 2-2 2H4c-1.1 0-2-.9-2-2V8c0-1.1.9-2 2-2h2V4c0-1.1.9-2 2-2h10c1.1 0 2 .9 2 2v2zm-9-2h6v2H9V4zm8 20V10h-2v12h-2v-6h-2v6h-2V10H5v12H3V8c0-1.1.9-2 2-2h14c1.1 0 2 .9 2 2v14h-2z"/>
</svg>
